<svg xmlns="http://www.w3.org/2000/svg" width="195.845" height="168.614" viewBox="0 0 195.845 168.614">
  <g id="Grupo_52" data-name="Grupo 52" transform="translate(-725.155 -7030)">
    <path id="Trazado_21" data-name="Trazado 21" d="M271.152,511.015A39.615,39.615,0,0,1,217.2,524.388a4.309,4.309,0,0,0-5.246.646l-1.851,1.851a4.2,4.2,0,0,0,.08,6.033,39.59,39.59,0,0,0,65.79-19.94,2.642,2.642,0,0,0-4.825-1.963" transform="translate(613.485 6654.919)" fill="#f5f5f5"/>
    <path id="Trazado_22" data-name="Trazado 22" d="M356.417,453.7A11.5,11.5,0,0,1,345,443.432a1.628,1.628,0,0,1,3.237-.345,8.23,8.23,0,1,0,16.368-1.744,1.628,1.628,0,0,1,3.237-.345,11.49,11.49,0,0,1-11.429,12.7" transform="translate(521.677 6702.271)" fill="#f5f5f5"/>
    <path id="Trazado_23" data-name="Trazado 23" d="M210.716,463.524a11.489,11.489,0,0,1-11.38-10.111,1.628,1.628,0,0,1,3.232-.39,8.23,8.23,0,0,0,16.341-1.973,1.628,1.628,0,0,1,3.232-.391,11.486,11.486,0,0,1-10.026,12.78,11.658,11.658,0,0,1-1.4.085" transform="translate(619.922 6695.74)" fill="#f5f5f5"/>
    <path id="Trazado_24" data-name="Trazado 24" d="M199.525,195.857H123.573a8.148,8.148,0,0,1-8.139-8.139V150.7c-10.412-4.089-18.405-11.689-21.775-20.894-2.587-7.064-1.967-14.288,1.7-19.822,4.013-6.129,10.261-10.473,18.068-12.56a42,42,0,0,1,21.726.212l.066.019a90.285,90.285,0,0,0,50.4,0l.066-.019a42.009,42.009,0,0,1,21.726-.212c7.806,2.087,14.054,6.43,18.068,12.559,3.667,5.534,4.285,12.758,1.7,19.823-3.129,8.546-10.242,15.707-19.575,19.962l.064,37.932a8.139,8.139,0,0,1-8.139,8.153M126.5,184.788H196.59l-.053-31.4a146.481,146.481,0,0,1-48.969,3.939,5.535,5.535,0,1,1,.966-11.027,135.508,135.508,0,0,0,49.789-4.867c6.928-2.012,15.415-7.121,18.457-15.429,1.385-3.783,1.194-7.3-.538-9.911l-.022-.033c-3.156-4.825-8.089-6.98-11.671-7.937a30.774,30.774,0,0,0-15.882.177,101.331,101.331,0,0,1-56.5,0,30.774,30.774,0,0,0-15.882-.177c-3.583.958-8.516,3.112-11.671,7.937l-.022.033c-1.732,2.608-1.923,6.128-.538,9.911,3.042,8.308,11.529,13.417,18.458,15.429l3.992,1.159Z" transform="translate(692.249 6933.897)" fill="#f5f5f5"/>
    <path id="Icon_material-chat-bubble" data-name="Icon material-chat-bubble" d="M9.355,3H60.2a6.374,6.374,0,0,1,6.355,6.355v57.2L53.844,53.844H9.355A6.374,6.374,0,0,1,3,47.488V9.355A6.374,6.374,0,0,1,9.355,3Z" transform="matrix(0.966, -0.259, 0.259, 0.966, 721.48, 7101.25)" fill="#f5f5f5"/>
  </g>
</svg>
