<svg xmlns="http://www.w3.org/2000/svg" width="34.088" height="24.881" viewBox="0 0 34.088 24.881">
  <path id="Trazado_24" data-name="Trazado 24" d="M118.881,120.983H99.937a2.032,2.032,0,0,1-2.03-2.03v-9.232a9.227,9.227,0,0,1-5.431-5.211,5.465,5.465,0,0,1,.424-4.944,7.591,7.591,0,0,1,4.507-3.133,10.476,10.476,0,0,1,5.419.053l.016,0a22.519,22.519,0,0,0,12.571,0l.016,0a10.478,10.478,0,0,1,5.419-.053,7.592,7.592,0,0,1,4.506,3.132,5.465,5.465,0,0,1,.424,4.944,9.08,9.08,0,0,1-4.882,4.979l.016,9.461a2.03,2.03,0,0,1-2.03,2.033m-18.213-2.761h17.481l-.013-7.832a36.535,36.535,0,0,1-12.214.982,1.38,1.38,0,1,1,.241-2.75,33.8,33.8,0,0,0,12.418-1.214,6.907,6.907,0,0,0,4.6-3.848,2.714,2.714,0,0,0-.134-2.472l-.005-.008a4.936,4.936,0,0,0-2.911-1.98,7.676,7.676,0,0,0-3.961.044,25.274,25.274,0,0,1-14.093,0,7.676,7.676,0,0,0-3.961-.044,4.935,4.935,0,0,0-2.911,1.98l-.005.008a2.714,2.714,0,0,0-.134,2.472,6.906,6.906,0,0,0,4.6,3.848l1,.289Z" transform="translate(-92.083 -96.103)" fill="#3e403e"/>
</svg>
