<svg xmlns="http://www.w3.org/2000/svg" width="156.786" height="193.435" viewBox="0 0 156.786 193.435">
  <g id="Grupo_44" data-name="Grupo 44" transform="translate(-838.392 -419.894)">
    <path id="Trazado_21" data-name="Trazado 21" d="M280.32,511.2a45.446,45.446,0,0,1-61.89,15.342,4.944,4.944,0,0,0-6.018.741l-2.123,2.123a4.817,4.817,0,0,0,.092,6.92,45.418,45.418,0,0,0,75.474-22.875,3.031,3.031,0,0,0-5.536-2.251" transform="translate(673.142 64.637)" fill="#f5f5f5"/>
    <path id="Trazado_22" data-name="Trazado 22" d="M358.1,455.786A13.194,13.194,0,0,1,345.005,444a1.868,1.868,0,0,1,3.714-.4,9.442,9.442,0,1,0,18.777-2,1.867,1.867,0,0,1,3.714-.4A13.181,13.181,0,0,1,358.1,455.786" transform="translate(587.859 108.624)" fill="#f5f5f5"/>
    <path id="Trazado_23" data-name="Trazado 23" d="M212.393,465.629a13.18,13.18,0,0,1-13.055-11.6,1.868,1.868,0,0,1,3.708-.448,9.441,9.441,0,0,0,18.747-2.263,1.868,1.868,0,0,1,3.708-.448A13.177,13.177,0,0,1,214,465.531a13.375,13.375,0,0,1-1.606.1" transform="translate(679.122 102.556)" fill="#f5f5f5"/>
    <path id="Trazado_24" data-name="Trazado 24" d="M215.341,210.541H128.209a9.348,9.348,0,0,1-9.337-9.337V158.742c-11.944-4.691-21.114-13.409-24.981-23.97-2.967-8.1-2.257-16.391,1.949-22.74,4.6-7.032,11.772-12.015,20.728-14.409a48.184,48.184,0,0,1,24.924.243l.076.022a103.575,103.575,0,0,0,57.819,0l.076-.022a48.192,48.192,0,0,1,24.924-.243c8.955,2.394,16.123,7.376,20.727,14.407,4.206,6.349,4.916,14.636,1.949,22.741-3.59,9.8-11.749,18.02-22.456,22.9l.073,43.516a9.338,9.338,0,0,1-9.337,9.353m-83.77-12.7h80.4l-.061-36.022a168.042,168.042,0,0,1-56.177,4.519,6.35,6.35,0,0,1,1.108-12.651,155.455,155.455,0,0,0,57.118-5.583c7.948-2.308,17.685-8.169,21.174-17.7,1.589-4.34,1.37-8.379-.617-11.37l-.025-.038c-3.62-5.536-9.279-8.007-13.389-9.106a35.3,35.3,0,0,0-18.219.2,116.247,116.247,0,0,1-64.82,0,35.3,35.3,0,0,0-18.219-.2c-4.11,1.1-9.769,3.57-13.389,9.106l-.025.038c-1.987,2.992-2.207,7.03-.617,11.37,3.49,9.531,13.227,15.392,21.176,17.7l4.579,1.33Z" transform="translate(746.309 323.791)" fill="#f5f5f5"/>
  </g>
</svg>
