<svg xmlns="http://www.w3.org/2000/svg" width="53.852" height="66.44" viewBox="0 0 53.852 66.44">
  <g id="Grupo_43" data-name="Grupo 43" transform="translate(-171.68 -62.871)">
    <path id="Trazado_17" data-name="Trazado 17" d="M233.411,510.25a15.609,15.609,0,0,1-21.258,5.27,1.7,1.7,0,0,0-2.067.255l-.729.729a1.654,1.654,0,0,0,.032,2.377,15.6,15.6,0,0,0,25.924-7.857,1.041,1.041,0,0,0-1.9-.773" transform="translate(-22.207 -393.816)" fill="#3e403e"/>
    <path id="Trazado_18" data-name="Trazado 18" d="M349.5,445.122a4.532,4.532,0,0,1-4.5-4.047.641.641,0,0,1,1.276-.136,3.243,3.243,0,1,0,6.449-.687.641.641,0,0,1,1.276-.136,4.528,4.528,0,0,1-4.5,5.006" transform="translate(-140.87 -332.613)" fill="#3e403e"/>
    <path id="Trazado_19" data-name="Trazado 19" d="M203.813,454.861a4.527,4.527,0,0,1-4.484-3.984.641.641,0,0,1,1.274-.154,3.243,3.243,0,0,0,6.439-.777.641.641,0,0,1,1.274-.154,4.526,4.526,0,0,1-3.951,5.036,4.6,4.6,0,0,1-.552.033" transform="translate(-13.887 -341.055)" fill="#3e403e"/>
    <path id="Trazado_20" data-name="Trazado 20" d="M134.419,135.409H104.491a3.211,3.211,0,0,1-3.207-3.207V117.618a14.578,14.578,0,0,1-8.58-8.233,8.633,8.633,0,0,1,.669-7.811,11.993,11.993,0,0,1,7.119-4.949,16.55,16.55,0,0,1,8.561.083l.026.007a35.575,35.575,0,0,0,19.859,0l.026-.007a16.553,16.553,0,0,1,8.561-.083,11.994,11.994,0,0,1,7.119,4.949,8.633,8.633,0,0,1,.669,7.811,14.344,14.344,0,0,1-7.713,7.866l.025,14.947a3.207,3.207,0,0,1-3.207,3.213m-28.773-4.362h27.616l-.021-12.373a57.718,57.718,0,0,1-19.3,1.552,2.181,2.181,0,0,1,.381-4.345,53.4,53.4,0,0,0,19.619-1.918c2.73-.793,6.074-2.806,7.273-6.08a4.288,4.288,0,0,0-.212-3.905l-.009-.013a7.8,7.8,0,0,0-4.6-3.128,12.126,12.126,0,0,0-6.258.07,39.927,39.927,0,0,1-22.264,0,12.126,12.126,0,0,0-6.258-.07,7.8,7.8,0,0,0-4.6,3.128l-.009.013a4.287,4.287,0,0,0-.212,3.905c1.2,3.274,4.543,5.287,7.273,6.079l1.573.457Z" transform="translate(79.597 -33.231)" fill="#3e403e"/>
  </g>
</svg>
